<svg version="1.1" preserveAspectRatio="none" xmlns="http://www.w3.org/2000/svg" width="500" height="500" viewBox="0 0 500 500"><rect width="100%" height="100%" fill="#F3D548" fill-opacity="1"/><svg viewBox="109.1117 205.3521 386.0387 287.839" width="333" height="248.29217122532015" x="83.5px" y="125.8539px" xmlns="http://www.w3.org/2000/svg" xmlns:xlink="http://www.w3.org/1999/xlink" preserveAspectRatio="none"><defs></defs><style>.aLgOaV3zRcolors-3 {fill:#6B6B6B;fill-opacity:1;}.aLgOaV3zRcolors-4 {fill:#AEAEAE;fill-opacity:1;}.aLgOaV3zRcolors-5 {fill:#EFB92A;fill-opacity:1;}.aLgOaV3zRcolors-6 {fill:#EF8C2A;fill-opacity:1;}.aLgOaV3zRcolors-7 {fill:#A21D1D;fill-opacity:1;}.companyName {fill:#25271C;fill-opacity:1;}.icon1 {fill:#25271C;fill-opacity:1;}.icon2 {fill:#FDFDFD;fill-opacity:1;}.icon3 {fill:#E13737;fill-opacity:1;}.icon3-str {stroke:#E13737;stroke-opacity:1;}.text {fill:#25271C;fill-opacity:1;}</style><g opacity="1" transform="rotate(0 168.156 472.7911)">
<svg width="267.9502" height="20.4" x="168.156" y="472.7911" version="1.1" preserveAspectRatio="none" viewBox="4.2 -30.28 499.6 38.040000000000006">
  <g transform="matrix(1 0 0 1 0 0)" class="text"><path id="id-6izo4zJp19" d="M23.04-14.52Q25.48-13.84 26.88-12.06Q28.28-10.28 28.28-7.56L28.28-7.56Q28.28-3.92 25.54-1.96Q22.80 0 17.56 0L17.56 0L4.20 0L4.20-28L16.76-28Q21.56-28 24.18-26.08Q26.80-24.16 26.80-20.76L26.80-20.76Q26.80-18.56 25.78-16.96Q24.76-15.36 23.04-14.52L23.04-14.52ZM16.40-24.76L8.20-24.76L8.20-15.80L16.40-15.80Q19.48-15.80 21.14-16.94Q22.80-18.08 22.80-20.28L22.80-20.28Q22.80-22.48 21.14-23.62Q19.48-24.76 16.40-24.76L16.40-24.76ZM17.40-3.24Q20.80-3.24 22.52-4.36Q24.24-5.48 24.24-7.88L24.24-7.88Q24.24-12.56 17.40-12.56L17.40-12.56L8.20-12.56L8.20-3.24L17.40-3.24Z M39.92 0L39.92-21.20L43.76-21.20L43.76 0L39.92 0ZM41.84-25.28Q40.72-25.28 39.98-26Q39.24-26.72 39.24-27.76L39.24-27.76Q39.24-28.80 39.98-29.54Q40.72-30.28 41.84-30.28L41.84-30.28Q42.96-30.28 43.70-29.58Q44.44-28.88 44.44-27.84L44.44-27.84Q44.44-26.76 43.70-26.02Q42.96-25.28 41.84-25.28L41.84-25.28Z M67.80-4L69-1.24Q68.16-0.52 66.92-0.14Q65.68 0.24 64.36 0.24L64.36 0.24Q61.16 0.24 59.40-1.48Q57.64-3.20 57.64-6.40L57.64-6.40L57.64-18.04L54.04-18.04L54.04-21.20L57.64-21.20L57.64-25.84L61.48-25.84L61.48-21.20L67.56-21.20L67.56-18.04L61.48-18.04L61.48-6.56Q61.48-4.84 62.34-3.92Q63.20-3 64.80-3L64.80-3Q66.56-3 67.80-4L67.80-4Z M98.08-10.48Q98.08-10.04 98-9.32L98-9.32L80.80-9.32Q81.16-6.52 83.26-4.82Q85.36-3.12 88.48-3.12L88.48-3.12Q92.28-3.12 94.60-5.68L94.60-5.68L96.72-3.20Q95.28-1.52 93.14-0.64Q91 0.24 88.36 0.24L88.36 0.24Q85 0.24 82.40-1.14Q79.80-2.52 78.38-5Q76.96-7.48 76.96-10.60L76.96-10.60Q76.96-13.68 78.34-16.16Q79.72-18.64 82.14-20.02Q84.56-21.40 87.60-21.40L87.60-21.40Q90.64-21.40 93.02-20.02Q95.40-18.64 96.74-16.16Q98.08-13.68 98.08-10.48L98.08-10.48ZM87.60-18.16Q84.84-18.16 82.98-16.48Q81.12-14.80 80.80-12.08L80.80-12.08L94.40-12.08Q94.08-14.76 92.22-16.46Q90.36-18.16 87.60-18.16L87.60-18.16Z M126.16 0L126.16-21.20L130-21.20L130 0L126.16 0ZM128.08-25.28Q126.96-25.28 126.22-26Q125.48-26.72 125.48-27.76L125.48-27.76Q125.48-28.80 126.22-29.54Q126.96-30.28 128.08-30.28L128.08-30.28Q129.20-30.28 129.94-29.58Q130.68-28.88 130.68-27.84L130.68-27.84Q130.68-26.76 129.94-26.02Q129.20-25.28 128.08-25.28L128.08-25.28Z M154.64-21.40Q158.68-21.40 161.06-19.06Q163.44-16.72 163.44-12.20L163.44-12.20L163.44 0L159.60 0L159.60-11.76Q159.60-14.84 158.12-16.40Q156.64-17.96 153.88-17.96L153.88-17.96Q150.76-17.96 148.96-16.14Q147.16-14.32 147.16-10.92L147.16-10.92L147.16 0L143.32 0L143.32-21.20L147-21.20L147-18Q148.16-19.64 150.14-20.52Q152.12-21.40 154.64-21.40L154.64-21.40Z M187.28-4L188.48-1.24Q187.64-0.52 186.40-0.14Q185.16 0.24 183.84 0.24L183.84 0.24Q180.64 0.24 178.88-1.48Q177.12-3.20 177.12-6.40L177.12-6.40L177.12-18.04L173.52-18.04L173.52-21.20L177.12-21.20L177.12-25.84L180.96-25.84L180.96-21.20L187.04-21.20L187.04-18.04L180.96-18.04L180.96-6.56Q180.96-4.84 181.82-3.92Q182.68-3 184.28-3L184.28-3Q186.04-3 187.28-4L187.28-4Z M207.48 0.24Q204.32 0.24 201.80-1.16Q199.28-2.56 197.86-5.02Q196.44-7.48 196.44-10.60L196.44-10.60Q196.44-13.72 197.86-16.18Q199.28-18.64 201.80-20.02Q204.32-21.40 207.48-21.40L207.48-21.40Q210.64-21.40 213.14-20.02Q215.64-18.64 217.06-16.18Q218.48-13.72 218.48-10.60L218.48-10.60Q218.48-7.48 217.06-5.02Q215.64-2.56 213.14-1.16Q210.64 0.24 207.48 0.24L207.48 0.24ZM207.48-3.12Q209.52-3.12 211.14-4.06Q212.76-5 213.68-6.70Q214.60-8.40 214.60-10.60L214.60-10.60Q214.60-12.80 213.68-14.50Q212.76-16.20 211.14-17.12Q209.52-18.04 207.48-18.04L207.48-18.04Q205.44-18.04 203.82-17.12Q202.20-16.20 201.26-14.50Q200.32-12.80 200.32-10.60L200.32-10.60Q200.32-8.40 201.26-6.70Q202.20-5 203.82-4.06Q205.44-3.12 207.48-3.12L207.48-3.12Z M267.20-28L271.20-28L271.20 0L267.20 0L267.20-12.48L251.12-12.48L251.12 0L247.12 0L247.12-28L251.12-28L251.12-15.96L267.20-15.96L267.20-28Z M292.76-21.40Q297.16-21.40 299.50-19.24Q301.84-17.08 301.84-12.80L301.84-12.80L301.84 0L298.20 0L298.20-2.80Q297.24-1.32 295.46-0.54Q293.68 0.24 291.24 0.24L291.24 0.24Q287.68 0.24 285.54-1.48Q283.40-3.20 283.40-6L283.40-6Q283.40-8.80 285.44-10.50Q287.48-12.20 291.92-12.20L291.92-12.20L298.00-12.20L298.00-12.96Q298.00-15.44 296.56-16.76Q295.12-18.08 292.32-18.08L292.32-18.08Q290.44-18.08 288.64-17.46Q286.84-16.84 285.60-15.80L285.60-15.80L284.00-18.68Q285.64-20 287.92-20.70Q290.20-21.40 292.76-21.40L292.76-21.40ZM291.88-2.72Q294.08-2.72 295.68-3.70Q297.28-4.68 298.00-6.48L298.00-6.48L298.00-9.44L292.08-9.44Q287.20-9.44 287.20-6.16L287.20-6.16Q287.20-4.56 288.44-3.64Q289.68-2.72 291.88-2.72L291.88-2.72Z M326.20-21.40Q329.28-21.40 331.72-20.04Q334.16-18.68 335.54-16.24Q336.92-13.80 336.92-10.60L336.92-10.60Q336.92-7.40 335.54-4.94Q334.16-2.48 331.72-1.12Q329.28 0.24 326.20 0.24L326.20 0.24Q323.92 0.24 322.02-0.64Q320.12-1.52 318.80-3.20L318.80-3.20L318.80 7.76L314.96 7.76L314.96-21.20L318.64-21.20L318.64-17.84Q319.92-19.60 321.88-20.50Q323.84-21.40 326.20-21.40L326.20-21.40ZM325.88-3.12Q327.92-3.12 329.54-4.06Q331.16-5 332.10-6.70Q333.04-8.40 333.04-10.60L333.04-10.60Q333.04-12.80 332.10-14.50Q331.16-16.20 329.54-17.12Q327.92-18.04 325.88-18.04L325.88-18.04Q323.88-18.04 322.26-17.10Q320.64-16.16 319.70-14.48Q318.76-12.80 318.76-10.60L318.76-10.60Q318.76-8.40 319.68-6.70Q320.60-5 322.24-4.06Q323.88-3.12 325.88-3.12L325.88-3.12Z M359.48-21.40Q362.56-21.40 365-20.04Q367.44-18.68 368.82-16.24Q370.20-13.80 370.20-10.60L370.20-10.60Q370.20-7.40 368.82-4.94Q367.44-2.48 365-1.12Q362.56 0.24 359.48 0.24L359.48 0.24Q357.20 0.24 355.30-0.64Q353.40-1.52 352.08-3.20L352.08-3.20L352.08 7.76L348.24 7.76L348.24-21.20L351.92-21.20L351.92-17.84Q353.20-19.60 355.16-20.50Q357.12-21.40 359.48-21.40L359.48-21.40ZM359.16-3.12Q361.20-3.12 362.82-4.06Q364.44-5 365.38-6.70Q366.32-8.40 366.32-10.60L366.32-10.60Q366.32-12.80 365.38-14.50Q364.44-16.20 362.82-17.12Q361.20-18.04 359.16-18.04L359.16-18.04Q357.16-18.04 355.54-17.10Q353.92-16.16 352.98-14.48Q352.04-12.80 352.04-10.60L352.04-10.60Q352.04-8.40 352.96-6.70Q353.88-5 355.52-4.06Q357.16-3.12 359.16-3.12L359.16-3.12Z M381.52 0L381.52-21.20L385.36-21.20L385.36 0L381.52 0ZM383.44-25.28Q382.32-25.28 381.58-26Q380.84-26.72 380.84-27.76L380.84-27.76Q380.84-28.80 381.58-29.54Q382.32-30.28 383.44-30.28L383.44-30.28Q384.56-30.28 385.30-29.58Q386.04-28.88 386.04-27.84L386.04-27.84Q386.04-26.76 385.30-26.02Q384.56-25.28 383.44-25.28L383.44-25.28Z M410-21.40Q414.04-21.40 416.42-19.06Q418.80-16.72 418.80-12.20L418.80-12.20L418.80 0L414.96 0L414.96-11.76Q414.96-14.84 413.48-16.40Q412-17.96 409.24-17.96L409.24-17.96Q406.12-17.96 404.32-16.14Q402.52-14.32 402.52-10.92L402.52-10.92L402.52 0L398.68 0L398.68-21.20L402.36-21.20L402.36-18Q403.52-19.64 405.50-20.52Q407.48-21.40 410-21.40L410-21.40Z M451.20-10.48Q451.20-10.04 451.12-9.32L451.12-9.32L433.92-9.32Q434.28-6.52 436.38-4.82Q438.48-3.12 441.60-3.12L441.60-3.12Q445.40-3.12 447.72-5.68L447.72-5.68L449.84-3.20Q448.40-1.52 446.26-0.64Q444.12 0.24 441.48 0.24L441.48 0.24Q438.12 0.24 435.52-1.14Q432.92-2.52 431.50-5Q430.08-7.48 430.08-10.60L430.08-10.60Q430.08-13.68 431.46-16.16Q432.84-18.64 435.26-20.02Q437.68-21.40 440.72-21.40L440.72-21.40Q443.76-21.40 446.14-20.02Q448.52-18.64 449.86-16.16Q451.20-13.68 451.20-10.48L451.20-10.48ZM440.72-18.16Q437.96-18.16 436.10-16.48Q434.24-14.80 433.92-12.08L433.92-12.08L447.52-12.08Q447.20-14.76 445.34-16.46Q443.48-18.16 440.72-18.16L440.72-18.16Z M468.60 0.24Q466.00 0.24 463.60-0.46Q461.20-1.16 459.84-2.24L459.84-2.24L461.44-5.28Q462.84-4.28 464.84-3.68Q466.84-3.08 468.88-3.08L468.88-3.08Q473.92-3.08 473.92-5.96L473.92-5.96Q473.92-6.92 473.24-7.48Q472.56-8.04 471.54-8.30Q470.52-8.56 468.64-8.88L468.64-8.88Q466.08-9.28 464.46-9.80Q462.84-10.32 461.68-11.56Q460.52-12.80 460.52-15.04L460.52-15.04Q460.52-17.92 462.92-19.66Q465.32-21.40 469.36-21.40L469.36-21.40Q471.48-21.40 473.60-20.88Q475.72-20.36 477.08-19.48L477.08-19.48L475.44-16.44Q472.84-18.12 469.32-18.12L469.32-18.12Q466.88-18.12 465.60-17.32Q464.32-16.52 464.32-15.20L464.32-15.20Q464.32-14.16 465.04-13.56Q465.76-12.96 466.82-12.68Q467.88-12.40 469.80-12.04L469.80-12.04Q472.36-11.60 473.94-11.10Q475.52-10.60 476.64-9.40Q477.76-8.20 477.76-6.04L477.76-6.04Q477.76-3.16 475.30-1.46Q472.84 0.24 468.60 0.24L468.60 0.24Z M494.64 0.24Q492.04 0.24 489.64-0.46Q487.24-1.16 485.88-2.24L485.88-2.24L487.48-5.28Q488.88-4.28 490.88-3.68Q492.88-3.08 494.92-3.08L494.92-3.08Q499.96-3.08 499.96-5.96L499.96-5.96Q499.96-6.92 499.28-7.48Q498.60-8.04 497.58-8.30Q496.56-8.56 494.68-8.88L494.68-8.88Q492.12-9.28 490.50-9.80Q488.88-10.32 487.72-11.56Q486.56-12.80 486.56-15.04L486.56-15.04Q486.56-17.92 488.96-19.66Q491.36-21.40 495.40-21.40L495.40-21.40Q497.52-21.40 499.64-20.88Q501.76-20.36 503.12-19.48L503.12-19.48L501.48-16.44Q498.88-18.12 495.36-18.12L495.36-18.12Q492.92-18.12 491.64-17.32Q490.36-16.52 490.36-15.20L490.36-15.20Q490.36-14.16 491.08-13.56Q491.80-12.96 492.86-12.68Q493.92-12.40 495.84-12.04L495.84-12.04Q498.40-11.60 499.98-11.10Q501.56-10.60 502.68-9.40Q503.80-8.20 503.80-6.04L503.80-6.04Q503.80-3.16 501.34-1.46Q498.88 0.24 494.64 0.24L494.64 0.24Z"/></g>
</svg>
</g><g opacity="1" transform="rotate(0 109.1117 390.7911)">
<svg width="386.0387" height="60" x="109.1117" y="390.7911" version="1.1" preserveAspectRatio="none" viewBox="3.76 -28 231.88 36.04">
  <g transform="matrix(1 0 0 1 0 0)" class="companyName"><path id="id-D6z1nYkh10" d="M27.68 0L22.08 0L16.36-8.20Q16-8.16 15.28-8.16L15.28-8.16L8.96-8.16L8.96 0L3.76 0L3.76-28L15.28-28Q18.92-28 21.62-26.80Q24.32-25.60 25.76-23.36Q27.20-21.12 27.20-18.04L27.20-18.04Q27.20-14.88 25.66-12.60Q24.12-10.32 21.24-9.20L21.24-9.20L27.68 0ZM21.96-18.04Q21.96-20.72 20.20-22.16Q18.44-23.60 15.04-23.60L15.04-23.60L8.96-23.60L8.96-12.44L15.04-12.44Q18.44-12.44 20.20-13.90Q21.96-15.36 21.96-18.04L21.96-18.04Z M52.72-28L57.88-28L57.88 0L53.60 0L38.16-18.96L38.16 0L33 0L33-28L37.28-28L52.72-9.04L52.72-28Z M96.28-14.56Q98.60-13.80 99.96-12.02Q101.32-10.24 101.32-7.60L101.32-7.60Q101.32-3.96 98.52-1.98Q95.72 0 90.36 0L90.36 0L76.44 0L76.44-28L89.56-28Q94.52-28 97.20-26.06Q99.88-24.12 99.88-20.72L99.88-20.72Q99.88-18.64 98.92-17.04Q97.96-15.44 96.28-14.56L96.28-14.56ZM89-23.92L81.64-23.92L81.64-16.20L89-16.20Q91.72-16.20 93.18-17.18Q94.64-18.16 94.64-20.04L94.64-20.04Q94.64-21.96 93.18-22.94Q91.72-23.92 89-23.92L89-23.92ZM90.04-4.08Q96.08-4.08 96.08-8.12L96.08-8.12Q96.08-12.16 90.04-12.16L90.04-12.16L81.64-12.16L81.64-4.08L90.04-4.08Z M122.08-21.36L127.08-21.36L127.08 0L122.32 0L122.32-2.72Q121.12-1.28 119.32-0.50Q117.52 0.28 115.44 0.28L115.44 0.28Q111.16 0.28 108.70-2.10Q106.24-4.48 106.24-9.16L106.24-9.16L106.24-21.36L111.24-21.36L111.24-9.84Q111.24-6.96 112.54-5.54Q113.84-4.12 116.24-4.12L116.24-4.12Q118.92-4.12 120.50-5.78Q122.08-7.44 122.08-10.56L122.08-10.56L122.08-21.36Z M138.40-18.24Q140.56-21.60 146-21.60L146-21.60L146-16.84Q145.36-16.96 144.84-16.96L144.84-16.96Q141.92-16.96 140.28-15.26Q138.64-13.56 138.64-10.36L138.64-10.36L138.64 0L133.64 0L133.64-21.36L138.40-21.36L138.40-18.24Z M166.48-21.36L171.24-21.36L171.24-3.24Q171.24 8.04 159.72 8.04L159.72 8.04Q156.64 8.04 153.88 7.26Q151.12 6.48 149.32 5L149.32 5L151.56 1.24Q152.96 2.40 155.10 3.10Q157.24 3.80 159.44 3.80L159.44 3.80Q162.96 3.80 164.60 2.20Q166.24 0.60 166.24-2.68L166.24-2.68L166.24-3.80Q164.96-2.40 163.12-1.68Q161.28-0.96 159.08-0.96L159.08-0.96Q156.04-0.96 153.58-2.26Q151.12-3.56 149.70-5.92Q148.28-8.28 148.28-11.32L148.28-11.32Q148.28-14.36 149.70-16.70Q151.12-19.04 153.58-20.32Q156.04-21.60 159.08-21.60L159.08-21.60Q161.40-21.60 163.30-20.84Q165.20-20.08 166.48-18.52L166.48-18.52L166.48-21.36ZM159.84-5.20Q162.68-5.20 164.50-6.90Q166.32-8.60 166.32-11.32L166.32-11.32Q166.32-14 164.50-15.68Q162.68-17.36 159.84-17.36L159.84-17.36Q156.96-17.36 155.14-15.68Q153.32-14 153.32-11.32L153.32-11.32Q153.32-8.60 155.14-6.90Q156.96-5.20 159.84-5.20L159.84-5.20Z M197.88-10.56Q197.88-10.04 197.80-9.08L197.80-9.08L181.04-9.08Q181.48-6.72 183.34-5.34Q185.20-3.96 187.96-3.96L187.96-3.96Q191.48-3.96 193.76-6.28L193.76-6.28L196.44-3.20Q195-1.48 192.80-0.60Q190.60 0.28 187.84 0.28L187.84 0.28Q184.32 0.28 181.64-1.12Q178.96-2.52 177.50-5.02Q176.04-7.52 176.04-10.68L176.04-10.68Q176.04-13.80 177.46-16.30Q178.88-18.80 181.40-20.20Q183.92-21.60 187.08-21.60L187.08-21.60Q190.20-21.60 192.66-20.22Q195.12-18.84 196.50-16.34Q197.88-13.84 197.88-10.56L197.88-10.56ZM187.08-17.60Q184.68-17.60 183.02-16.18Q181.36-14.76 181-12.40L181-12.40L193.12-12.40Q192.80-14.72 191.16-16.16Q189.52-17.60 187.08-17.60L187.08-17.60Z M207.44-18.24Q209.60-21.60 215.04-21.60L215.04-21.60L215.04-16.84Q214.40-16.96 213.88-16.96L213.88-16.96Q210.96-16.96 209.32-15.26Q207.68-13.56 207.68-10.36L207.68-10.36L207.68 0L202.68 0L202.68-21.36L207.44-21.36L207.44-18.24Z M225.96 0.28Q223.36 0.28 220.88-0.40Q218.40-1.08 216.92-2.12L216.92-2.12L218.84-5.92Q220.28-4.96 222.30-4.38Q224.32-3.80 226.28-3.80L226.28-3.80Q230.76-3.80 230.76-6.16L230.76-6.16Q230.76-7.28 229.62-7.72Q228.48-8.16 225.96-8.56L225.96-8.56Q223.32-8.96 221.66-9.48Q220-10 218.78-11.30Q217.56-12.60 217.56-14.92L217.56-14.92Q217.56-17.96 220.10-19.78Q222.64-21.60 226.96-21.60L226.96-21.60Q229.16-21.60 231.36-21.10Q233.56-20.60 234.96-19.76L234.96-19.76L233.04-15.96Q230.32-17.56 226.92-17.56L226.92-17.56Q224.72-17.56 223.58-16.90Q222.44-16.24 222.44-15.16L222.44-15.16Q222.44-13.96 223.66-13.46Q224.88-12.96 227.44-12.52L227.44-12.52Q230-12.12 231.64-11.60Q233.28-11.08 234.46-9.84Q235.64-8.60 235.64-6.32L235.64-6.32Q235.64-3.32 233.04-1.52Q230.44 0.28 225.96 0.28L225.96 0.28Z"/></g>
</svg>
</g><g opacity="1" transform="rotate(0 205.6214 205.3521)">
<svg width="193.0193" height="155.439" x="205.6214" y="205.3521" version="1.1" preserveAspectRatio="none" viewBox="4.8212175369262695 13.715179443359375 90.00338745117188 72.4800033569336">
  <g transform="matrix(1 0 0 1 0 0)" class="icon1"><path d="m92.699 52.293 1.1914-0.51172c0.51172-0.21875 0.86719-0.69922 0.92578-1.2539 0.058594-0.55469-0.19141-1.1016-0.65234-1.4219l-5.4102-3.7617c2.7656-2.5195 4.1836-5.4336 4.1836-8.6836 0-12.223-19.887-22.945-42.562-22.945-22.469 0-42.926 10.938-42.926 22.945 0 3.0273 1.2383 5.7695 3.6445 8.1641l-5.8281 5.9062c-0.38281 0.38672-0.53125 0.93359-0.39453 1.4609 0.13281 0.52734 0.52734 0.93359 1.0469 1.0898l1.3945 0.41797c0.46094 1.3477 1.1602 2.6406 2.082 3.8789-1.5039 1.2695-5.1992 4.8516-3.0586 7.8594 0.61328 0.87109 1.5625 1.4609 2.7852 1.7969v3.7773c0 2.0859 0.88672 4.0938 2.4531 5.5195 4.0156 3.707 10.961 6.5195 20.086 8.1406 1.4688 0.25781 2.8984 0.46875 4.2383 0.63672 4.5117 0.58594 9.3242 0.88672 14.301 0.88672 5.3945 0 10.578-0.34766 15.402-1.0312 1.0469-0.14453 2.0781-0.30469 3.0977-0.48437 8.5508-1.5117 15.238-4.0938 19.332-7.4609 0.26172-0.21094 0.51172-0.42969 0.75391-0.64844 1.8125-1.6523 2.8516-4.0859 2.8516-6.668v-5.1602c1.5586-0.38672 2.5078-1.1094 2.8164-2.168 0.46094-1.5781-0.66406-3.6211-3.3906-6.2188 0.78906-1.3008 1.3438-2.6562 1.6367-4.0625zm-83.773-15.629c0-11.238 19.758-21.469 41.453-21.469 21.504 0 41.086 10.234 41.086 21.469 0 3.0625-1.4688 5.8164-4.3672 8.1836-0.97656 0.80078-2.1094 1.5586-3.3945 2.2656-0.82031 0.45312-1.7109 0.88281-2.6523 1.293-3.4648 1.5117-7.7109 2.7266-12.609 3.5938-1 0.17578-2.0117 0.33203-3.0469 0.47656-4.7578 0.67578-9.8711 1.0156-15.199 1.0156-4.9141 0-9.6602-0.29297-14.109-0.875l-0.097657-0.011719c-1.3008-0.16016-2.6719-0.36719-4.0742-0.61328-2.2109-0.39063-4.2891-0.85547-6.2188-1.3828-5.793-1.582-10.27-3.7539-13.125-6.3906-2.418-2.2148-3.6445-4.7578-3.6445-7.5547zm77.621 10.438c-1.1406 4.0977-5.4805 7.1016-10.645 7.1016-1.8281 0-3.625-0.39453-5.2227-1.125 0.089843-0.019531 0.17187-0.039063 0.25781-0.058594 0.67578-0.14062 1.3438-0.28516 1.9922-0.44141 0.085937-0.019531 0.17187-0.039063 0.25391-0.058594 0.69531-0.16797 1.375-0.34766 2.0391-0.53125 0.14062-0.039062 0.28516-0.078125 0.42578-0.11719 0.66016-0.1875 1.3086-0.38281 1.9336-0.58594 0.0625-0.019531 0.125-0.042968 0.1875-0.0625 0.58594-0.19141 1.1562-0.39453 1.7148-0.60156 0.10547-0.039063 0.21484-0.078125 0.32031-0.11719 0.57812-0.21875 1.1367-0.44531 1.6797-0.67969 0.10938-0.046875 0.21484-0.09375 0.32031-0.14062 0.53125-0.23438 1.0547-0.47656 1.5508-0.72656 0.019531-0.011719 0.042969-0.019531 0.0625-0.03125 0.51172-0.25781 0.99609-0.52344 1.4648-0.79297 0.097657-0.054687 0.19141-0.10937 0.28906-0.16797 0.45312-0.26953 0.89062-0.54297 1.3086-0.82422 0.023437-0.015625 0.046875-0.027344 0.066406-0.039063zm-22.605 7.0547c-2.3555 2.5859-7.4805 4.3008-13.238 4.3008-5.6211 0-10.684-1.6602-13.098-4.168 0.32031 0.035157 0.65234 0.0625 0.98047 0.09375 0.45312 0.046876 0.90625 0.089844 1.3633 0.13281 0.66797 0.058594 1.3398 0.10938 2.0156 0.15625 0.44531 0.03125 0.88672 0.066406 1.3359 0.089844 0.75 0.042969 1.5078 0.074219 2.2695 0.10547 0.38281 0.015624 0.76172 0.035156 1.1484 0.046874 1.1523 0.03125 2.3125 0.050782 3.4844 0.050782 1.2773 0 2.5391-0.023438 3.7891-0.0625 0.41406-0.011719 0.82031-0.035156 1.2344-0.054688 0.82813-0.035156 1.6562-0.070312 2.4727-0.12109 0.48438-0.03125 0.96094-0.070312 1.4375-0.10547 0.73438-0.054688 1.4648-0.11328 2.1875-0.18359 0.49219-0.046875 0.98047-0.10156 1.4648-0.15625 0.37891-0.046875 0.77344-0.078125 1.1523-0.125zm-34.016-1.0391c-1.8125 1.0625-3.9648 1.6367-6.2109 1.6367-5.6953 0-10.391-3.6953-10.898-8.4023 0.042969 0.03125 0.09375 0.0625 0.13672 0.09375 0.41797 0.32031 0.85938 0.62891 1.3242 0.93359 0.078125 0.050782 0.16016 0.097656 0.23828 0.14844 0.46094 0.29297 0.9375 0.57812 1.4414 0.85547 0.050781 0.027344 0.10156 0.058594 0.15234 0.085938 0.53125 0.28906 1.0898 0.56641 1.668 0.83984 0.11719 0.054687 0.23047 0.10938 0.34766 0.16406 0.57812 0.26562 1.1719 0.51953 1.793 0.76562 0.10938 0.042969 0.21875 0.085938 0.32812 0.125 0.61719 0.24219 1.25 0.47266 1.9102 0.69531 0.050781 0.015625 0.097656 0.035156 0.14844 0.050781 0.68359 0.23047 1.3945 0.44922 2.1211 0.66016 0.14453 0.042969 0.28906 0.085938 0.4375 0.125 0.71484 0.20312 1.4492 0.39453 2.2031 0.57812 0.14062 0.035156 0.28906 0.066406 0.42969 0.10156 0.76562 0.17969 1.5469 0.35547 2.3477 0.51562 0.027344 0.011718 0.050781 0.019531 0.082031 0.027344zm-23.582-1.2422-0.027344-0.10156 5.0508-5.1211c0.66406 5.375 5.9453 9.5781 12.344 9.5781 3.0742 0 5.9883-0.97266 8.2656-2.7344 1.2305 0.21094 2.4258 0.39062 3.5742 0.53906 2.2031 3.5391 8.2031 5.8984 15.148 5.8984 6.9805 0 13.152-2.4727 15.254-6.0508 0.82812-0.11719 1.6445-0.24609 2.4531-0.38281 2.1484 1.4023 4.793 2.1797 7.4883 2.1797 6.1562 0 11.27-3.8438 12.238-8.9609l5.1797 3.6016 0.42188-0.60547-0.43359 0.71484-36.656 15.684c-0.75781 0.32422-1.6055 0.375-2.3984 0.13281zm2.7695 2.3711 44.707 13.414c0.46875 0.14062 0.95313 0.21094 1.4375 0.21094 0.67188 0 1.3398-0.13672 1.9648-0.40234l33.758-14.441c-3.0781 9.6211-20.637 16.98-41.168 16.98-19.543 0-36.566-6.6914-40.699-15.762zm81.047 15.66c0 2.1719-0.86328 4.2031-2.3711 5.5781-0.22266 0.20312-0.45312 0.40234-0.69531 0.59766-3.9023 3.2109-10.352 5.6836-18.652 7.1484-1 0.17578-2.0117 0.33203-3.0469 0.47656-4.7578 0.67578-9.8711 1.0156-15.199 1.0156-4.9141 0-9.6602-0.29297-14.113-0.875-1.3203-0.16406-2.7227-0.37109-4.168-0.625-8.8438-1.5703-15.535-4.2539-19.375-7.7969-1.2383-1.1289-1.9453-2.7344-1.9453-4.4102v-3.4961c1.3984 0.13281 2.8086-0.023437 3.8164-0.19922 0.12109-0.015624 0.23828 0.007813 0.33594 0.078126 0.050781 0.039062 0.14062 0.12109 0.16016 0.26172 0.17578 1.2734 0.71875 2.9727 2.3008 3.8281 1.5664 0.84766 3.7539 0.62109 6.5-0.67578 0.33984-0.15625 0.72656-0.066406 0.92578 0.21875 1.5156 2.1602 5.7109 6.7422 11.957 2.7305 0.34766-0.22266 0.82031-0.15234 1.1016 0.15625 1.1328 1.2461 4.1836 3.7812 8.0938 0.40625 0.49219-0.42578 1.2461-0.40234 1.8008 0.10547 1.7656 1.6094 5.9023 5.375 10.484 0.56641 1.4844-1.5508 3.8398-3 6.668-1.0898 3.418 2.3125 5.418 0.074219 6.168-0.76562 0.25781-0.28906 0.64453-0.39453 0.98438-0.26562 3.3398 1.2344 6.2422 0.36719 7.9648-2.3828 0.28125-0.44531 0.80859-0.64063 1.2734-0.47656 1.7383 0.61328 4.1758 1.1016 5.9141-0.054687 1.1445-0.76172 1.7773-2.0938 1.8867-3.9531 0.03125-0.53906 0.42578-0.95703 0.94141-0.99609 0.09375-0.007813 0.19141-0.015625 0.28906-0.023438zm2.875-7.7422c-0.23047 0.79297-1.5195 1.1289-2.2656 1.2578-0.34766 0.058594-0.69141 0.097656-1.0078 0.12109-1.2383 0.089843-2.2305 1.1133-2.3047 2.3828-0.078125 1.375-0.49219 2.3203-1.2305 2.8086-1.2969 0.86328-3.4414 0.30078-4.6055-0.10938-1.125-0.39844-2.3672 0.046875-3.0156 1.082-1.7148 2.7344-4.3164 2.4805-6.1992 1.7812-0.91406-0.33984-1.9336-0.078125-2.5977 0.66797-0.95703 1.0703-2.0742 1.9961-4.2422 0.52734-2.8711-1.9414-5.9102-1.4805-8.5586 1.293-3.3125 3.4766-5.9805 1.5898-8.4805-0.6875-1.0547-0.96094-2.6484-0.99219-3.707-0.078124-2.1523 1.8555-4.1797 1.7578-6.0352-0.28125-0.76172-0.83594-2.0469-1.0117-2.9883-0.40625-4.9844 3.1992-8.375-0.089844-9.9531-2.3398-0.61328-0.875-1.7773-1.1719-2.7656-0.70312-2.2656 1.0703-4.0508 1.3164-5.168 0.71094-1.0391-0.5625-1.4102-1.7969-1.5391-2.7344-0.070313-0.50391-0.33594-0.94531-0.75-1.25-0.41406-0.30469-0.94141-0.42969-1.457-0.34375-1.1055 0.1875-2.7227 0.35547-4.168 0.082031h-0.003906c-1.1406-0.21094-1.9648-0.66797-2.4531-1.3555-1.3867-1.9492 1.5312-4.7773 2.7852-5.8516 6.707 7.625 21.914 12.742 39.484 12.742 18.531 0 34.305-5.6797 40.414-13.891 2.7969 2.7031 2.9727 4.0195 2.8125 4.5742z"></path><path d="m50.746 19.57c0.69922 0 1.2656-0.33594 1.2656-0.75391 0-0.41797-0.56641-0.75391-1.2656-0.75391-0.69922 0-1.2656 0.33594-1.2656 0.75391 0 0.41406 0.56641 0.75391 1.2656 0.75391z"></path><path d="m38.828 21.824c0.69922 0 1.2656-0.42188 1.2656-0.94141 0-0.51953-0.56641-0.94141-1.2656-0.94141s-1.2656 0.42188-1.2656 0.94141c0 0.51953 0.56641 0.94141 1.2656 0.94141z"></path><path d="m25.078 26.352c0 1.1953-2.5312 1.1953-2.5312 0 0-1.1992 2.5312-1.1992 2.5312 0z"></path><path d="m23.219 37.34c0.69922 0 1.2656-0.38672 1.2656-0.86719 0-0.47656-0.56641-0.86719-1.2656-0.86719s-1.2656 0.38672-1.2656 0.86719c-0.003906 0.47656 0.5625 0.86719 1.2656 0.86719z"></path><path d="m34.316 30.316c0 1.1602-2.5352 1.1602-2.5352 0 0-1.1641 2.5352-1.1641 2.5352 0z"></path><path d="m48.438 27.551c0 1.1133-2.5352 1.1133-2.5352 0s2.5352-1.1133 2.5352 0z"></path><path d="m57.328 28.773c0.69922 0 1.2656-0.38281 1.2656-0.85547 0-0.47266-0.56641-0.85547-1.2656-0.85547s-1.2656 0.38281-1.2656 0.85547c0 0.47266 0.56641 0.85547 1.2656 0.85547z"></path><path d="m65.539 21.211c0 1.1602-2.5352 1.1602-2.5352 0 0-1.1602 2.5352-1.1602 2.5352 0z"></path><path d="m77.691 30.16c0.69922 0 1.2656-0.30859 1.2656-0.69141s-0.56641-0.69141-1.2656-0.69141c-0.69922-0.003906-1.2656 0.30469-1.2656 0.6875 0 0.38281 0.56641 0.69531 1.2656 0.69531z"></path><path d="m68.57 31.5c0 1.2695-2.5352 1.2695-2.5352 0s2.5352-1.2695 2.5352 0z"></path><path d="m72.457 39.199c0.69922 0 1.2656-0.32812 1.2656-0.73828 0-0.40625-0.56641-0.73828-1.2656-0.73828s-1.2656 0.32812-1.2656 0.73828c0 0.40625 0.56641 0.73828 1.2656 0.73828z"></path><path d="m54.797 37.988c0.69922 0 1.2656-0.37891 1.2656-0.84766s-0.56641-0.84766-1.2656-0.84766-1.2656 0.37891-1.2656 0.84766 0.56641 0.84766 1.2656 0.84766z"></path><path d="m42.105 38.613c0.69922 0 1.2656-0.35938 1.2656-0.80078s-0.56641-0.80078-1.2656-0.80078-1.2656 0.35938-1.2656 0.80078 0.56641 0.80078 1.2656 0.80078z"></path></g>
</svg>
</g></svg></svg>